<svg width="467" height="184" viewBox="0 0 467 184" fill="none" xmlns="http://www.w3.org/2000/svg">
<path d="M0.945 45L16.18 6.5H24.1L39.225 45H29.765L22.505 25.475C22.2117 24.705 21.9183 23.88 21.625 23C21.3317 22.12 21.0383 21.2217 20.745 20.305C20.4517 19.3517 20.1583 18.435 19.865 17.555C19.6083 16.6383 19.3883 15.795 19.205 15.025L20.855 14.97C20.635 15.8867 20.3783 16.785 20.085 17.665C19.8283 18.545 19.5533 19.425 19.26 20.305C19.0033 21.1483 18.71 22.01 18.38 22.89C18.05 23.7333 17.7383 24.6133 17.445 25.53L10.185 45H0.945ZM8.205 37.63L11.12 30.59H28.83L31.69 37.63H8.205ZM68.5757 45L57.0257 6.5H66.5407L72.3157 26.74C72.5723 27.6567 72.7923 28.5917 72.9757 29.545C73.1957 30.4617 73.3607 31.3417 73.4707 32.185C73.6173 33.0283 73.7273 33.8167 73.8007 34.55C73.874 35.2467 73.9473 35.8333 74.0207 36.31H72.8107C73.0307 34.9533 73.214 33.7433 73.3607 32.68C73.544 31.6167 73.7457 30.6267 73.9657 29.71C74.1857 28.7567 74.4607 27.7667 74.7907 26.74L80.5107 11.505H87.9907L93.6007 26.74C94.0407 27.95 94.4073 29.0867 94.7007 30.15C94.994 31.2133 95.214 32.24 95.3607 33.23C95.544 34.1833 95.6907 35.1367 95.8007 36.09L94.7007 36.255C94.774 35.595 94.829 34.99 94.8657 34.44C94.9023 33.8533 94.939 33.3033 94.9757 32.79C95.049 32.24 95.1223 31.6717 95.1957 31.085C95.269 30.4983 95.379 29.8567 95.5257 29.16C95.6723 28.4267 95.874 27.6017 96.1307 26.685L101.851 6.5H111.146L99.5957 45H92.4457L83.3157 22.835L84.3607 22.945L75.9457 45H68.5757ZM115.83 45V15.795H124.63V45H115.83ZM120.23 10.02C118.58 10.02 117.278 9.635 116.325 8.865C115.408 8.05833 114.95 6.92167 114.95 5.455C114.95 4.135 115.426 3.05333 116.38 2.21C117.333 1.36666 118.616 0.944997 120.23 0.944997C121.88 0.944997 123.163 1.34833 124.08 2.155C124.996 2.925 125.455 4.025 125.455 5.455C125.455 6.81166 124.978 7.91166 124.025 8.755C123.108 9.59833 121.843 10.02 120.23 10.02ZM143.953 45.605C141.423 45.605 139.168 44.9633 137.188 43.68C135.245 42.36 133.705 40.5633 132.568 38.29C131.431 35.98 130.863 33.3583 130.863 30.425C130.863 27.4917 131.431 24.8883 132.568 22.615C133.705 20.305 135.263 18.49 137.243 17.17C139.223 15.85 141.496 15.19 144.063 15.19C145.383 15.19 146.648 15.3917 147.858 15.795C149.068 16.1983 150.168 16.7483 151.158 17.445C152.148 18.1417 152.955 18.9483 153.578 19.865C154.201 20.745 154.568 21.6617 154.678 22.615L152.588 23.11V4.3H161.443V45H153.248L152.753 38.345L154.513 38.62C154.403 39.5367 154.036 40.4167 153.413 41.26C152.826 42.1033 152.056 42.855 151.103 43.515C150.15 44.1383 149.05 44.6333 147.803 45C146.593 45.4033 145.31 45.605 143.953 45.605ZM146.208 38.29C147.565 38.29 148.738 37.96 149.728 37.3C150.718 36.64 151.47 35.7233 151.983 34.55C152.533 33.3767 152.808 32.0017 152.808 30.425C152.808 28.8117 152.533 27.4183 151.983 26.245C151.47 25.0717 150.718 24.155 149.728 23.495C148.738 22.835 147.565 22.505 146.208 22.505C144.851 22.505 143.678 22.835 142.688 23.495C141.735 24.155 140.983 25.0717 140.433 26.245C139.883 27.4183 139.608 28.8117 139.608 30.425C139.608 32.0017 139.883 33.3767 140.433 34.55C140.983 35.7233 141.735 36.64 142.688 37.3C143.678 37.96 144.851 38.29 146.208 38.29ZM182.799 45.55C179.573 45.55 176.768 44.9083 174.384 43.625C172.001 42.305 170.149 40.5267 168.829 38.29C167.509 36.0167 166.849 33.4317 166.849 30.535C166.849 28.2983 167.216 26.245 167.949 24.375C168.683 22.505 169.709 20.8917 171.029 19.535C172.349 18.1417 173.908 17.0783 175.704 16.345C177.538 15.575 179.536 15.19 181.699 15.19C183.753 15.19 185.623 15.5567 187.309 16.29C189.033 17.0233 190.518 18.05 191.764 19.37C193.011 20.69 193.964 22.2483 194.624 24.045C195.284 25.8417 195.578 27.8033 195.504 29.93L195.449 32.295H172.184L170.919 27.345H188.299L187.364 28.39V27.29C187.291 26.3733 186.998 25.5667 186.484 24.87C186.008 24.1367 185.366 23.5683 184.559 23.165C183.753 22.7617 182.836 22.56 181.809 22.56C180.379 22.56 179.151 22.8533 178.124 23.44C177.134 23.99 176.383 24.815 175.869 25.915C175.356 26.9783 175.099 28.2983 175.099 29.875C175.099 31.4883 175.429 32.9 176.089 34.11C176.786 35.2833 177.776 36.2 179.059 36.86C180.379 37.52 181.938 37.85 183.734 37.85C184.981 37.85 186.081 37.6667 187.034 37.3C188.024 36.9333 189.088 36.31 190.224 35.43L194.349 41.26C193.213 42.25 192.003 43.0567 190.719 43.68C189.436 44.3033 188.116 44.7617 186.759 45.055C185.439 45.385 184.119 45.55 182.799 45.55ZM232.423 45.55C229.893 45.55 227.602 45.2567 225.548 44.67C223.532 44.0467 221.735 43.1667 220.158 42.03C218.582 40.8567 217.17 39.4817 215.923 37.905L221.588 31.47C223.422 33.9267 225.255 35.5767 227.088 36.42C228.958 37.2633 230.883 37.685 232.863 37.685C233.853 37.685 234.752 37.5567 235.558 37.3C236.365 37.0433 236.988 36.6767 237.428 36.2C237.868 35.6867 238.088 35.0633 238.088 34.33C238.088 33.78 237.942 33.285 237.648 32.845C237.392 32.405 237.025 32.02 236.548 31.69C236.072 31.36 235.503 31.0667 234.843 30.81C234.183 30.5167 233.487 30.2783 232.753 30.095C232.02 29.875 231.268 29.6917 230.498 29.545C228.372 29.0683 226.52 28.4817 224.943 27.785C223.367 27.0883 222.047 26.245 220.983 25.255C219.957 24.2283 219.187 23.0733 218.673 21.79C218.16 20.47 217.903 19.0033 217.903 17.39C217.903 15.6667 218.288 14.09 219.058 12.66C219.865 11.1933 220.928 9.94667 222.248 8.92C223.605 7.85666 225.163 7.05 226.923 6.5C228.683 5.91333 230.517 5.62 232.423 5.62C234.953 5.62 237.117 5.895 238.913 6.445C240.747 6.95833 242.305 7.71 243.588 8.7C244.908 9.69 246.027 10.8817 246.943 12.275L241.168 17.83C240.398 16.8767 239.555 16.0883 238.638 15.465C237.758 14.8417 236.805 14.365 235.778 14.035C234.788 13.705 233.762 13.54 232.698 13.54C231.598 13.54 230.645 13.6867 229.838 13.98C229.068 14.2367 228.463 14.6217 228.023 15.135C227.583 15.6117 227.363 16.1983 227.363 16.895C227.363 17.5183 227.547 18.05 227.913 18.49C228.28 18.93 228.775 19.3333 229.398 19.7C230.022 20.03 230.737 20.3233 231.543 20.58C232.35 20.8 233.193 20.9833 234.073 21.13C236.09 21.5333 237.905 22.065 239.518 22.725C241.168 23.385 242.58 24.1917 243.753 25.145C244.963 26.0983 245.88 27.235 246.503 28.555C247.163 29.8383 247.493 31.3417 247.493 33.065C247.493 35.7417 246.833 38.015 245.513 39.885C244.23 41.7183 242.452 43.13 240.178 44.12C237.942 45.0733 235.357 45.55 232.423 45.55ZM267.502 45.55C264.275 45.55 261.47 44.9083 259.087 43.625C256.703 42.305 254.852 40.5267 253.532 38.29C252.212 36.0167 251.552 33.4317 251.552 30.535C251.552 28.2983 251.918 26.245 252.652 24.375C253.385 22.505 254.412 20.8917 255.732 19.535C257.052 18.1417 258.61 17.0783 260.407 16.345C262.24 15.575 264.238 15.19 266.402 15.19C268.455 15.19 270.325 15.5567 272.012 16.29C273.735 17.0233 275.22 18.05 276.467 19.37C277.713 20.69 278.667 22.2483 279.327 24.045C279.987 25.8417 280.28 27.8033 280.207 29.93L280.152 32.295H256.887L255.622 27.345H273.002L272.067 28.39V27.29C271.993 26.3733 271.7 25.5667 271.187 24.87C270.71 24.1367 270.068 23.5683 269.262 23.165C268.455 22.7617 267.538 22.56 266.512 22.56C265.082 22.56 263.853 22.8533 262.827 23.44C261.837 23.99 261.085 24.815 260.572 25.915C260.058 26.9783 259.802 28.2983 259.802 29.875C259.802 31.4883 260.132 32.9 260.792 34.11C261.488 35.2833 262.478 36.2 263.762 36.86C265.082 37.52 266.64 37.85 268.437 37.85C269.683 37.85 270.783 37.6667 271.737 37.3C272.727 36.9333 273.79 36.31 274.927 35.43L279.052 41.26C277.915 42.25 276.705 43.0567 275.422 43.68C274.138 44.3033 272.818 44.7617 271.462 45.055C270.142 45.385 268.822 45.55 267.502 45.55ZM285.868 45V4.3H294.668V45H285.868ZM315.895 45.55C312.669 45.55 309.864 44.9083 307.48 43.625C305.097 42.305 303.245 40.5267 301.925 38.29C300.605 36.0167 299.945 33.4317 299.945 30.535C299.945 28.2983 300.312 26.245 301.045 24.375C301.779 22.505 302.805 20.8917 304.125 19.535C305.445 18.1417 307.004 17.0783 308.8 16.345C310.634 15.575 312.632 15.19 314.795 15.19C316.849 15.19 318.719 15.5567 320.405 16.29C322.129 17.0233 323.614 18.05 324.86 19.37C326.107 20.69 327.06 22.2483 327.72 24.045C328.38 25.8417 328.674 27.8033 328.6 29.93L328.545 32.295H305.28L304.015 27.345H321.395L320.46 28.39V27.29C320.387 26.3733 320.094 25.5667 319.58 24.87C319.104 24.1367 318.462 23.5683 317.655 23.165C316.849 22.7617 315.932 22.56 314.905 22.56C313.475 22.56 312.247 22.8533 311.22 23.44C310.23 23.99 309.479 24.815 308.965 25.915C308.452 26.9783 308.195 28.2983 308.195 29.875C308.195 31.4883 308.525 32.9 309.185 34.11C309.882 35.2833 310.872 36.2 312.155 36.86C313.475 37.52 315.034 37.85 316.83 37.85C318.077 37.85 319.177 37.6667 320.13 37.3C321.12 36.9333 322.184 36.31 323.32 35.43L327.445 41.26C326.309 42.25 325.099 43.0567 323.815 43.68C322.532 44.3033 321.212 44.7617 319.855 45.055C318.535 45.385 317.215 45.55 315.895 45.55ZM347.022 45.55C344.198 45.55 341.668 44.89 339.432 43.57C337.195 42.25 335.417 40.4533 334.097 38.18C332.813 35.87 332.172 33.2667 332.172 30.37C332.172 27.4733 332.813 24.8883 334.097 22.615C335.417 20.305 337.195 18.49 339.432 17.17C341.668 15.85 344.198 15.19 347.022 15.19C349.625 15.19 352.008 15.6483 354.172 16.565C356.372 17.4817 358.113 18.765 359.397 20.415L354.612 26.135C354.098 25.5483 353.493 24.9983 352.797 24.485C352.1 23.9717 351.33 23.5683 350.487 23.275C349.643 22.9817 348.763 22.835 347.847 22.835C346.453 22.835 345.225 23.165 344.162 23.825C343.098 24.4483 342.273 25.3283 341.687 26.465C341.1 27.6017 340.807 28.9033 340.807 30.37C340.807 31.7633 341.1 33.0283 341.687 34.165C342.31 35.3017 343.153 36.2 344.217 36.86C345.28 37.52 346.49 37.85 347.847 37.85C348.8 37.85 349.68 37.74 350.487 37.52C351.293 37.2633 352.027 36.8967 352.687 36.42C353.383 35.9433 354.025 35.3567 354.612 34.66L359.342 40.435C358.095 42.0117 356.353 43.2583 354.117 44.175C351.917 45.0917 349.552 45.55 347.022 45.55ZM366.597 45V8.425H375.397V45H366.597ZM361.427 23.495V15.795H381.062V23.495H361.427ZM386.587 45V15.795H395.387V45H386.587ZM390.987 10.02C389.337 10.02 388.035 9.635 387.082 8.865C386.165 8.05833 385.707 6.92167 385.707 5.455C385.707 4.135 386.183 3.05333 387.137 2.21C388.09 1.36666 389.373 0.944997 390.987 0.944997C392.637 0.944997 393.92 1.34833 394.837 2.155C395.753 2.925 396.212 4.025 396.212 5.455C396.212 6.81166 395.735 7.91166 394.782 8.755C393.865 9.59833 392.6 10.02 390.987 10.02ZM417.405 45.55C414.362 45.55 411.648 44.89 409.265 43.57C406.918 42.25 405.048 40.4533 403.655 38.18C402.298 35.9067 401.62 33.3033 401.62 30.37C401.62 27.4367 402.298 24.8333 403.655 22.56C405.048 20.2867 406.918 18.49 409.265 17.17C411.648 15.85 414.362 15.19 417.405 15.19C420.448 15.19 423.143 15.85 425.49 17.17C427.873 18.49 429.743 20.2867 431.1 22.56C432.457 24.8333 433.135 27.4367 433.135 30.37C433.135 33.3033 432.457 35.9067 431.1 38.18C429.743 40.4533 427.873 42.25 425.49 43.57C423.143 44.89 420.448 45.55 417.405 45.55ZM417.405 37.96C418.725 37.96 419.898 37.63 420.925 36.97C421.952 36.31 422.758 35.4117 423.345 34.275C423.932 33.1383 424.207 31.8367 424.17 30.37C424.207 28.9033 423.932 27.6017 423.345 26.465C422.758 25.2917 421.952 24.375 420.925 23.715C419.898 23.055 418.725 22.725 417.405 22.725C416.085 22.725 414.893 23.055 413.83 23.715C412.803 24.375 411.997 25.2917 411.41 26.465C410.823 27.6017 410.548 28.9033 410.585 30.37C410.548 31.8367 410.823 33.1383 411.41 34.275C411.997 35.4117 412.803 36.31 413.83 36.97C414.893 37.63 416.085 37.96 417.405 37.96ZM438.889 45V15.795H447.249L447.524 21.735L445.764 22.395C446.168 21.075 446.883 19.8833 447.909 18.82C448.973 17.72 450.238 16.84 451.704 16.18C453.171 15.52 454.711 15.19 456.324 15.19C458.524 15.19 460.376 15.6483 461.879 16.565C463.383 17.445 464.519 18.7833 465.289 20.58C466.059 22.34 466.444 24.5033 466.444 27.07V45H457.589V27.785C457.589 26.6117 457.424 25.64 457.094 24.87C456.764 24.1 456.251 23.5317 455.554 23.165C454.894 22.7617 454.069 22.5783 453.079 22.615C452.309 22.615 451.594 22.7433 450.934 23C450.274 23.22 449.706 23.5683 449.229 24.045C448.753 24.485 448.368 24.9983 448.074 25.585C447.818 26.1717 447.689 26.8133 447.689 27.51V45H443.344C442.318 45 441.438 45 440.704 45C439.971 45 439.366 45 438.889 45ZM18.655 114.55C15.6117 114.55 12.8983 113.89 10.515 112.57C8.16833 111.25 6.29833 109.453 4.905 107.18C3.54833 104.907 2.87 102.303 2.87 99.37C2.87 96.4367 3.54833 93.8333 4.905 91.56C6.29833 89.2867 8.16833 87.49 10.515 86.17C12.8983 84.85 15.6117 84.19 18.655 84.19C21.6983 84.19 24.3933 84.85 26.74 86.17C29.1233 87.49 30.9933 89.2867 32.35 91.56C33.7067 93.8333 34.385 96.4367 34.385 99.37C34.385 102.303 33.7067 104.907 32.35 107.18C30.9933 109.453 29.1233 111.25 26.74 112.57C24.3933 113.89 21.6983 114.55 18.655 114.55ZM18.655 106.96C19.975 106.96 21.1483 106.63 22.175 105.97C23.2017 105.31 24.0083 104.412 24.595 103.275C25.1817 102.138 25.4567 100.837 25.42 99.37C25.4567 97.9033 25.1817 96.6017 24.595 95.465C24.0083 94.2917 23.2017 93.375 22.175 92.715C21.1483 92.055 19.975 91.725 18.655 91.725C17.335 91.725 16.1433 92.055 15.08 92.715C14.0533 93.375 13.2467 94.2917 12.66 95.465C12.0733 96.6017 11.7983 97.9033 11.835 99.37C11.7983 100.837 12.0733 102.138 12.66 103.275C13.2467 104.412 14.0533 105.31 15.08 105.97C16.1433 106.63 17.335 106.96 18.655 106.96ZM40.8802 114V83.365C40.8802 81.4583 41.2835 79.735 42.0902 78.195C42.9335 76.655 44.0885 75.445 45.5552 74.565C47.0585 73.6483 48.8002 73.19 50.7802 73.19C52.1735 73.19 53.4568 73.3917 54.6302 73.795C55.8035 74.1983 56.8485 74.7667 57.7652 75.5L55.2352 81.935C54.7585 81.6783 54.3002 81.4767 53.8602 81.33C53.4202 81.1833 53.0168 81.11 52.6502 81.11C51.9902 81.11 51.4402 81.22 51.0002 81.44C50.5602 81.66 50.2302 82.0083 50.0102 82.485C49.8268 82.925 49.7352 83.475 49.7352 84.135V114H45.3352C44.3452 114 43.4652 114 42.6952 114C41.9618 114 41.3568 114 40.8802 114ZM36.6452 92.88V85.62H55.7302V92.88H36.6452ZM5.84 183V144.5H14.2L28.225 167.325L22.23 167.27L36.42 144.5H44.45V183H35.375V171.01C35.375 167.71 35.4483 164.74 35.595 162.1C35.7783 159.46 36.0717 156.838 36.475 154.235L37.52 157.095L26.85 173.65H23.22L12.77 157.205L13.815 154.235C14.2183 156.692 14.4933 159.222 14.64 161.825C14.8233 164.392 14.915 167.453 14.915 171.01V183H5.84ZM67.1061 183.55C63.8795 183.55 61.0745 182.908 58.6911 181.625C56.3078 180.305 54.4561 178.527 53.1361 176.29C51.8161 174.017 51.1561 171.432 51.1561 168.535C51.1561 166.298 51.5228 164.245 52.2561 162.375C52.9895 160.505 54.0161 158.892 55.3361 157.535C56.6561 156.142 58.2145 155.078 60.0111 154.345C61.8445 153.575 63.8428 153.19 66.0061 153.19C68.0595 153.19 69.9295 153.557 71.6161 154.29C73.3395 155.023 74.8245 156.05 76.0711 157.37C77.3178 158.69 78.2711 160.248 78.9311 162.045C79.5911 163.842 79.8845 165.803 79.8111 167.93L79.7561 170.295H56.4911L55.2261 165.345H72.6061L71.6711 166.39V165.29C71.5978 164.373 71.3045 163.567 70.7911 162.87C70.3145 162.137 69.6728 161.568 68.8661 161.165C68.0595 160.762 67.1428 160.56 66.1161 160.56C64.6861 160.56 63.4578 160.853 62.4311 161.44C61.4411 161.99 60.6895 162.815 60.1761 163.915C59.6628 164.978 59.4061 166.298 59.4061 167.875C59.4061 169.488 59.7361 170.9 60.3961 172.11C61.0928 173.283 62.0828 174.2 63.3661 174.86C64.6861 175.52 66.2445 175.85 68.0411 175.85C69.2878 175.85 70.3878 175.667 71.3411 175.3C72.3311 174.933 73.3945 174.31 74.5311 173.43L78.6561 179.26C77.5195 180.25 76.3095 181.057 75.0261 181.68C73.7428 182.303 72.4228 182.762 71.0661 183.055C69.7461 183.385 68.4261 183.55 67.1061 183.55ZM96.4727 183.605C93.9427 183.605 91.6877 182.963 89.7077 181.68C87.7644 180.36 86.2244 178.563 85.0877 176.29C83.951 173.98 83.3827 171.358 83.3827 168.425C83.3827 165.492 83.951 162.888 85.0877 160.615C86.2244 158.305 87.7827 156.49 89.7627 155.17C91.7427 153.85 94.016 153.19 96.5827 153.19C97.9027 153.19 99.1677 153.392 100.378 153.795C101.588 154.198 102.688 154.748 103.678 155.445C104.668 156.142 105.474 156.948 106.098 157.865C106.721 158.745 107.088 159.662 107.198 160.615L105.108 161.11V142.3H113.963V183H105.768L105.273 176.345L107.033 176.62C106.923 177.537 106.556 178.417 105.933 179.26C105.346 180.103 104.576 180.855 103.623 181.515C102.669 182.138 101.569 182.633 100.323 183C99.1127 183.403 97.8294 183.605 96.4727 183.605ZM98.7277 176.29C100.084 176.29 101.258 175.96 102.248 175.3C103.238 174.64 103.989 173.723 104.503 172.55C105.053 171.377 105.328 170.002 105.328 168.425C105.328 166.812 105.053 165.418 104.503 164.245C103.989 163.072 103.238 162.155 102.248 161.495C101.258 160.835 100.084 160.505 98.7277 160.505C97.371 160.505 96.1977 160.835 95.2077 161.495C94.2544 162.155 93.5027 163.072 92.9527 164.245C92.4027 165.418 92.1277 166.812 92.1277 168.425C92.1277 170.002 92.4027 171.377 92.9527 172.55C93.5027 173.723 94.2544 174.64 95.2077 175.3C96.1977 175.96 97.371 176.29 98.7277 176.29ZM121.899 183V153.795H130.699V183H121.899ZM126.299 148.02C124.649 148.02 123.347 147.635 122.394 146.865C121.477 146.058 121.019 144.922 121.019 143.455C121.019 142.135 121.496 141.053 122.449 140.21C123.402 139.367 124.686 138.945 126.299 138.945C127.949 138.945 129.232 139.348 130.149 140.155C131.066 140.925 131.524 142.025 131.524 143.455C131.524 144.812 131.047 145.912 130.094 146.755C129.177 147.598 127.912 148.02 126.299 148.02ZM151.783 183.55C148.959 183.55 146.429 182.89 144.193 181.57C141.956 180.25 140.178 178.453 138.858 176.18C137.574 173.87 136.933 171.267 136.933 168.37C136.933 165.473 137.574 162.888 138.858 160.615C140.178 158.305 141.956 156.49 144.193 155.17C146.429 153.85 148.959 153.19 151.783 153.19C154.386 153.19 156.769 153.648 158.933 154.565C161.133 155.482 162.874 156.765 164.158 158.415L159.373 164.135C158.859 163.548 158.254 162.998 157.558 162.485C156.861 161.972 156.091 161.568 155.248 161.275C154.404 160.982 153.524 160.835 152.608 160.835C151.214 160.835 149.986 161.165 148.923 161.825C147.859 162.448 147.034 163.328 146.448 164.465C145.861 165.602 145.568 166.903 145.568 168.37C145.568 169.763 145.861 171.028 146.448 172.165C147.071 173.302 147.914 174.2 148.978 174.86C150.041 175.52 151.251 175.85 152.608 175.85C153.561 175.85 154.441 175.74 155.248 175.52C156.054 175.263 156.788 174.897 157.448 174.42C158.144 173.943 158.786 173.357 159.373 172.66L164.102 178.435C162.856 180.012 161.114 181.258 158.878 182.175C156.678 183.092 154.313 183.55 151.783 183.55ZM169.433 183V153.795H178.233V183H169.433ZM173.833 148.02C172.183 148.02 170.882 147.635 169.928 146.865C169.012 146.058 168.553 144.922 168.553 143.455C168.553 142.135 169.03 141.053 169.983 140.21C170.937 139.367 172.22 138.945 173.833 138.945C175.483 138.945 176.767 139.348 177.683 140.155C178.6 140.925 179.058 142.025 179.058 143.455C179.058 144.812 178.582 145.912 177.628 146.755C176.712 147.598 175.447 148.02 173.833 148.02ZM186.502 183V153.795H194.862L195.137 159.735L193.377 160.395C193.78 159.075 194.495 157.883 195.522 156.82C196.585 155.72 197.85 154.84 199.317 154.18C200.783 153.52 202.323 153.19 203.937 153.19C206.137 153.19 207.988 153.648 209.492 154.565C210.995 155.445 212.132 156.783 212.902 158.58C213.672 160.34 214.057 162.503 214.057 165.07V183H205.202V165.785C205.202 164.612 205.037 163.64 204.707 162.87C204.377 162.1 203.863 161.532 203.167 161.165C202.507 160.762 201.682 160.578 200.692 160.615C199.922 160.615 199.207 160.743 198.547 161C197.887 161.22 197.318 161.568 196.842 162.045C196.365 162.485 195.98 162.998 195.687 163.585C195.43 164.172 195.302 164.813 195.302 165.51V183H190.957C189.93 183 189.05 183 188.317 183C187.583 183 186.978 183 186.502 183ZM235.329 183.55C232.102 183.55 229.297 182.908 226.914 181.625C224.53 180.305 222.679 178.527 221.359 176.29C220.039 174.017 219.379 171.432 219.379 168.535C219.379 166.298 219.745 164.245 220.479 162.375C221.212 160.505 222.239 158.892 223.559 157.535C224.879 156.142 226.437 155.078 228.234 154.345C230.067 153.575 232.065 153.19 234.229 153.19C236.282 153.19 238.152 153.557 239.839 154.29C241.562 155.023 243.047 156.05 244.294 157.37C245.54 158.69 246.494 160.248 247.154 162.045C247.814 163.842 248.107 165.803 248.034 167.93L247.979 170.295H224.714L223.449 165.345H240.829L239.894 166.39V165.29C239.82 164.373 239.527 163.567 239.014 162.87C238.537 162.137 237.895 161.568 237.089 161.165C236.282 160.762 235.365 160.56 234.339 160.56C232.909 160.56 231.68 160.853 230.654 161.44C229.664 161.99 228.912 162.815 228.399 163.915C227.885 164.978 227.629 166.298 227.629 167.875C227.629 169.488 227.959 170.9 228.619 172.11C229.315 173.283 230.305 174.2 231.589 174.86C232.909 175.52 234.467 175.85 236.264 175.85C237.51 175.85 238.61 175.667 239.564 175.3C240.554 174.933 241.617 174.31 242.754 173.43L246.879 179.26C245.742 180.25 244.532 181.057 243.249 181.68C241.965 182.303 240.645 182.762 239.289 183.055C237.969 183.385 236.649 183.55 235.329 183.55ZM263.485 183.55C260.625 183.55 258.095 183.092 255.895 182.175C253.732 181.258 252.009 180.03 250.725 178.49L256.06 173.87C257.197 175.007 258.48 175.85 259.91 176.4C261.34 176.913 262.697 177.17 263.98 177.17C264.494 177.17 264.952 177.115 265.355 177.005C265.759 176.895 266.089 176.748 266.345 176.565C266.639 176.345 266.859 176.107 267.005 175.85C267.152 175.557 267.225 175.227 267.225 174.86C267.225 174.127 266.895 173.558 266.235 173.155C265.905 172.972 265.355 172.752 264.585 172.495C263.815 172.238 262.825 171.945 261.615 171.615C259.892 171.175 258.389 170.662 257.105 170.075C255.859 169.452 254.832 168.737 254.025 167.93C253.292 167.16 252.724 166.317 252.32 165.4C251.917 164.447 251.715 163.383 251.715 162.21C251.715 160.853 252.027 159.625 252.65 158.525C253.31 157.425 254.172 156.472 255.235 155.665C256.335 154.858 257.582 154.253 258.975 153.85C260.405 153.41 261.872 153.19 263.375 153.19C264.989 153.19 266.529 153.373 267.995 153.74C269.462 154.107 270.819 154.62 272.065 155.28C273.349 155.94 274.485 156.728 275.475 157.645L270.855 162.815C270.195 162.192 269.444 161.642 268.6 161.165C267.794 160.652 266.95 160.248 266.07 159.955C265.19 159.662 264.384 159.515 263.65 159.515C263.1 159.515 262.605 159.57 262.165 159.68C261.762 159.753 261.414 159.9 261.12 160.12C260.827 160.303 260.607 160.542 260.46 160.835C260.314 161.092 260.24 161.403 260.24 161.77C260.24 162.137 260.332 162.485 260.515 162.815C260.735 163.145 261.029 163.42 261.395 163.64C261.762 163.86 262.349 164.117 263.155 164.41C263.962 164.667 265.062 164.997 266.455 165.4C268.179 165.877 269.664 166.408 270.91 166.995C272.157 167.582 273.147 168.278 273.88 169.085C274.467 169.708 274.907 170.442 275.2 171.285C275.494 172.092 275.64 172.972 275.64 173.925C275.64 175.795 275.109 177.463 274.045 178.93C273.019 180.36 271.589 181.497 269.755 182.34C267.922 183.147 265.832 183.55 263.485 183.55Z" fill="#1D3196"/>
<path d="M103.079 114V75.5H112.429V114H103.079ZM79.2091 114V75.5H88.5591V114H79.2091ZM82.8391 98.985L82.8941 90.625H108.029V98.985H82.8391ZM121.63 114V84.795H130.43V114H121.63ZM126.03 79.02C124.38 79.02 123.079 78.635 122.125 77.865C121.209 77.0583 120.75 75.9217 120.75 74.455C120.75 73.135 121.227 72.0533 122.18 71.21C123.134 70.3667 124.417 69.945 126.03 69.945C127.68 69.945 128.964 70.3483 129.88 71.155C130.797 71.925 131.255 73.025 131.255 74.455C131.255 75.8117 130.779 76.9117 129.825 77.755C128.909 78.5983 127.644 79.02 126.03 79.02ZM152.064 126.65C149.681 126.65 147.297 126.302 144.914 125.605C142.567 124.908 140.661 124.01 139.194 122.91L142.274 116.75C143.044 117.263 143.887 117.703 144.804 118.07C145.757 118.473 146.747 118.785 147.774 119.005C148.801 119.225 149.846 119.335 150.909 119.335C152.779 119.335 154.301 119.06 155.474 118.51C156.647 117.96 157.527 117.117 158.114 115.98C158.701 114.88 158.994 113.487 158.994 111.8V106.905L160.699 107.18C160.442 108.39 159.801 109.49 158.774 110.48C157.784 111.47 156.556 112.277 155.089 112.9C153.622 113.487 152.064 113.78 150.414 113.78C147.774 113.78 145.409 113.175 143.319 111.965C141.266 110.718 139.634 109.013 138.424 106.85C137.251 104.65 136.664 102.12 136.664 99.26C136.664 96.3267 137.251 93.7417 138.424 91.505C139.597 89.2317 141.211 87.4533 143.264 86.17C145.317 84.85 147.627 84.19 150.194 84.19C151.294 84.19 152.339 84.3183 153.329 84.575C154.356 84.8317 155.291 85.18 156.134 85.62C157.014 86.0233 157.784 86.5183 158.444 87.105C159.141 87.655 159.691 88.26 160.094 88.92C160.534 89.58 160.827 90.2583 160.974 90.955L159.159 91.395L159.489 84.795H167.849V111.635C167.849 114.018 167.482 116.127 166.749 117.96C166.052 119.83 165.007 121.407 163.614 122.69C162.257 124.01 160.607 125 158.664 125.66C156.721 126.32 154.521 126.65 152.064 126.65ZM152.284 106.96C153.714 106.96 154.942 106.648 155.969 106.025C157.032 105.365 157.839 104.467 158.389 103.33C158.976 102.193 159.269 100.855 159.269 99.315C159.269 97.775 158.976 96.4367 158.389 95.3C157.839 94.1267 157.032 93.2283 155.969 92.605C154.942 91.945 153.714 91.615 152.284 91.615C150.891 91.615 149.681 91.945 148.654 92.605C147.627 93.2283 146.821 94.1267 146.234 95.3C145.684 96.4367 145.409 97.775 145.409 99.315C145.409 100.855 145.684 102.193 146.234 103.33C146.821 104.467 147.627 105.365 148.654 106.025C149.681 106.648 150.891 106.96 152.284 106.96ZM175.491 114V73.3H184.126V90.735L182.366 91.395C182.769 90.075 183.484 88.8833 184.511 87.82C185.574 86.72 186.839 85.84 188.306 85.18C189.773 84.52 191.313 84.19 192.926 84.19C195.126 84.19 196.978 84.6483 198.481 85.565C199.984 86.445 201.121 87.7833 201.891 89.58C202.661 91.34 203.046 93.5033 203.046 96.07V114H194.191V96.785C194.191 95.6117 194.026 94.64 193.696 93.87C193.366 93.1 192.853 92.5317 192.156 92.165C191.496 91.7617 190.671 91.5783 189.681 91.615C188.911 91.615 188.196 91.7433 187.536 92C186.876 92.22 186.308 92.5683 185.831 93.045C185.354 93.485 184.969 93.9983 184.676 94.585C184.419 95.1717 184.291 95.8133 184.291 96.51V114H179.946C178.919 114 178.039 114 177.306 114C176.573 114 175.968 114 175.491 114ZM209.303 102.23V94.145H228.333V102.23H209.303ZM264.976 120.05L250.236 100.085L257.111 95.3L271.686 115.1L264.976 120.05ZM253.481 114.55C250.585 114.55 247.926 114.055 245.506 113.065C243.086 112.075 240.978 110.682 239.181 108.885C237.385 107.088 235.991 104.98 235.001 102.56C234.011 100.14 233.516 97.4817 233.516 94.585C233.516 91.6883 234.011 89.03 235.001 86.61C235.991 84.19 237.385 82.0817 239.181 80.285C240.978 78.4883 243.086 77.095 245.506 76.105C247.926 75.115 250.585 74.62 253.481 74.62C256.378 74.62 259.036 75.115 261.456 76.105C263.876 77.095 265.985 78.4883 267.781 80.285C269.578 82.0817 270.953 84.19 271.906 86.61C272.896 89.03 273.391 91.6883 273.391 94.585C273.391 97.445 272.896 100.103 271.906 102.56C270.953 104.98 269.578 107.088 267.781 108.885C265.985 110.682 263.876 112.075 261.456 113.065C259.036 114.055 256.378 114.55 253.481 114.55ZM253.481 105.75C254.985 105.75 256.36 105.475 257.606 104.925C258.89 104.375 259.99 103.605 260.906 102.615C261.86 101.588 262.593 100.397 263.106 99.04C263.62 97.6833 263.876 96.1983 263.876 94.585C263.876 92.9717 263.62 91.4867 263.106 90.13C262.593 88.7733 261.86 87.6 260.906 86.61C259.99 85.5833 258.89 84.795 257.606 84.245C256.36 83.695 254.985 83.42 253.481 83.42C251.978 83.42 250.585 83.695 249.301 84.245C248.055 84.795 246.955 85.5833 246.001 86.61C245.048 87.6 244.315 88.7733 243.801 90.13C243.325 91.4867 243.086 92.9717 243.086 94.585C243.086 96.1983 243.325 97.7017 243.801 99.095C244.315 100.452 245.048 101.625 246.001 102.615C246.955 103.605 248.055 104.375 249.301 104.925C250.585 105.475 251.978 105.75 253.481 105.75ZM289.645 114.605C287.482 114.605 285.63 114.147 284.09 113.23C282.587 112.277 281.413 110.92 280.57 109.16C279.763 107.4 279.36 105.292 279.36 102.835V84.795H288.215V101.625C288.215 102.798 288.398 103.807 288.765 104.65C289.132 105.493 289.682 106.153 290.415 106.63C291.148 107.07 292.028 107.29 293.055 107.29C293.825 107.29 294.522 107.162 295.145 106.905C295.805 106.648 296.355 106.3 296.795 105.86C297.272 105.383 297.638 104.852 297.895 104.265C298.152 103.642 298.28 102.963 298.28 102.23V84.795H307.135V114H298.83L298.445 108.005L300.095 107.345C299.655 108.738 298.922 109.985 297.895 111.085C296.868 112.148 295.64 113.01 294.21 113.67C292.78 114.293 291.258 114.605 289.645 114.605ZM325.758 114.495C323.302 114.495 321.102 113.853 319.158 112.57C317.252 111.25 315.73 109.453 314.593 107.18C313.457 104.87 312.888 102.267 312.888 99.37C312.888 96.4 313.457 93.7783 314.593 91.505C315.73 89.2317 317.288 87.4533 319.268 86.17C321.248 84.85 323.503 84.19 326.033 84.19C327.427 84.19 328.692 84.3917 329.828 84.795C331.002 85.1983 332.028 85.7667 332.908 86.5C333.788 87.1967 334.54 88.0217 335.163 88.975C335.787 89.8917 336.245 90.8817 336.538 91.945L334.723 91.725V84.795H343.468V114H334.558V106.96L336.538 106.905C336.245 107.932 335.768 108.903 335.108 109.82C334.448 110.737 333.642 111.543 332.688 112.24C331.735 112.937 330.672 113.487 329.498 113.89C328.325 114.293 327.078 114.495 325.758 114.495ZM328.178 107.07C329.535 107.07 330.708 106.758 331.698 106.135C332.688 105.512 333.458 104.632 334.008 103.495C334.558 102.322 334.833 100.947 334.833 99.37C334.833 97.7933 334.558 96.4367 334.008 95.3C333.458 94.1267 332.688 93.2283 331.698 92.605C330.708 91.945 329.535 91.615 328.178 91.615C326.858 91.615 325.703 91.945 324.713 92.605C323.76 93.2283 323.008 94.1267 322.458 95.3C321.908 96.4367 321.633 97.7933 321.633 99.37C321.633 100.947 321.908 102.322 322.458 103.495C323.008 104.632 323.76 105.512 324.713 106.135C325.703 106.758 326.858 107.07 328.178 107.07ZM351.288 114V73.3H360.088V114H351.288ZM368.432 114V84.795H377.232V114H368.432ZM372.832 79.02C371.182 79.02 369.881 78.635 368.927 77.865C368.011 77.0583 367.552 75.9217 367.552 74.455C367.552 73.135 368.029 72.0533 368.982 71.21C369.936 70.3667 371.219 69.945 372.832 69.945C374.482 69.945 375.766 70.3483 376.682 71.155C377.599 71.925 378.057 73.025 378.057 74.455C378.057 75.8117 377.581 76.9117 376.627 77.755C375.711 78.5983 374.446 79.02 372.832 79.02ZM387.921 114V77.425H396.721V114H387.921ZM382.751 92.495V84.795H402.386V92.495H382.751ZM411.1 126.65L417.755 110.975L417.865 115.485L403.785 84.795H413.74L419.9 99.48C420.23 100.213 420.541 101.002 420.835 101.845C421.128 102.688 421.348 103.495 421.495 104.265L420.285 104.98C420.505 104.43 420.743 103.752 421 102.945C421.293 102.102 421.605 101.203 421.935 100.25L427.325 84.795H437.335L424.905 114L419.845 126.65H411.1Z" fill="#F21737"/>
</svg>
