<svg width="209" height="68" viewBox="0 0 209 68" fill="none" xmlns="http://www.w3.org/2000/svg">
<g clip-path="url(#clip0_115_12)">
<path d="M35.0227 15.9604L35.0227 52.0398C35.0227 58.6197 29.7795 63.9538 23.3116 63.9538C16.8438 63.9538 11.6006 58.6197 11.6006 52.0398L11.6006 15.9604C11.6006 9.38049 16.8438 4.04639 23.3116 4.04639C29.7795 4.04639 35.0227 9.38049 35.0227 15.9604Z" fill="white" stroke="#1D3196" stroke-width="8"/>
<path d="M7.62305 29.6726L38.9998 29.6726V38.3271L7.62305 38.3271L7.62305 29.6726Z" fill="#1D3196"/>
<path d="M7.62323 38.3274L7.62323 45.8579H15.5779L15.5779 38.3274H23.2011L23.2011 29.6728H15.5779L15.5779 22.2546L7.62323 22.2546L7.62323 29.6728H0L0 38.3274H7.62323Z" fill="#FF0000"/>
</g>
<path d="M63.332 61.57V47.7875H65.256V50.0075L64.96 49.841C65.034 49.471 65.2437 49.1195 65.589 48.7865C65.9343 48.4412 66.3537 48.1637 66.847 47.954C67.3527 47.732 67.8707 47.621 68.401 47.621C69.2767 47.621 70.0537 47.8368 70.732 48.2685C71.4103 48.7002 71.9468 49.2922 72.3415 50.0445C72.7362 50.7968 72.9335 51.6602 72.9335 52.6345C72.9335 53.5965 72.7362 54.4598 72.3415 55.2245C71.9592 55.9768 71.4288 56.575 70.7505 57.019C70.0722 57.4507 69.3075 57.6665 68.4565 57.6665C67.8892 57.6665 67.3403 57.5555 66.81 57.3335C66.2797 57.0992 65.8295 56.8032 65.4595 56.4455C65.0895 56.0878 64.8613 55.7178 64.775 55.3355L65.256 55.0765V61.57H63.332ZM68.142 55.909C68.7093 55.909 69.215 55.7672 69.659 55.4835C70.103 55.1998 70.4545 54.8113 70.7135 54.318C70.9725 53.8247 71.102 53.2635 71.102 52.6345C71.102 52.0055 70.9725 51.4505 70.7135 50.9695C70.4668 50.4762 70.1215 50.0877 69.6775 49.804C69.2335 49.5203 68.7217 49.3785 68.142 49.3785C67.5623 49.3785 67.0505 49.5203 66.6065 49.804C66.1625 50.0753 65.811 50.4577 65.552 50.951C65.293 51.4443 65.1635 52.0055 65.1635 52.6345C65.1635 53.2635 65.293 53.8247 65.552 54.318C65.811 54.8113 66.1625 55.1998 66.6065 55.4835C67.0505 55.7672 67.5623 55.909 68.142 55.909ZM75.0029 57.5V43.81H76.9084V49.7855L76.5754 50.0075C76.6987 49.5758 76.9392 49.1812 77.2969 48.8235C77.6546 48.4535 78.0801 48.1575 78.5734 47.9355C79.0667 47.7012 79.5724 47.584 80.0904 47.584C80.8304 47.584 81.4471 47.732 81.9404 48.028C82.4337 48.3117 82.8037 48.7495 83.0504 49.3415C83.2971 49.9335 83.4204 50.6797 83.4204 51.58V57.5H81.5149V51.7095C81.5149 51.1545 81.4409 50.6982 81.2929 50.3405C81.1449 49.9705 80.9167 49.7053 80.6084 49.545C80.3001 49.3723 79.9177 49.2983 79.4614 49.323C79.0914 49.323 78.7522 49.3847 78.4439 49.508C78.1356 49.619 77.8642 49.7793 77.6299 49.989C77.4079 50.1987 77.2291 50.4453 77.0934 50.729C76.9701 51.0003 76.9084 51.2963 76.9084 51.617V57.5H75.9649C75.8046 57.5 75.6442 57.5 75.4839 57.5C75.3236 57.5 75.1632 57.5 75.0029 57.5ZM89.7423 57.685C88.9407 57.685 88.2068 57.463 87.5408 57.019C86.8872 56.575 86.363 55.9707 85.9683 55.206C85.5737 54.4413 85.3763 53.578 85.3763 52.616C85.3763 51.6417 85.5737 50.7783 85.9683 50.026C86.3753 49.2613 86.918 48.6632 87.5963 48.2315C88.287 47.7998 89.0578 47.584 89.9088 47.584C90.4145 47.584 90.877 47.658 91.2963 47.806C91.7157 47.954 92.0795 48.1637 92.3878 48.435C92.7085 48.694 92.9675 48.9962 93.1648 49.3415C93.3745 49.6868 93.504 50.0568 93.5533 50.4515L93.1278 50.3035V47.7875H95.0518V57.5H93.1278V55.1875L93.5718 55.058C93.4978 55.391 93.3437 55.7178 93.1093 56.0385C92.8873 56.3468 92.5975 56.6243 92.2398 56.871C91.8945 57.1177 91.506 57.315 91.0743 57.463C90.655 57.611 90.211 57.685 89.7423 57.685ZM90.2418 55.9275C90.8215 55.9275 91.3333 55.7857 91.7773 55.502C92.2213 55.2183 92.5667 54.8298 92.8133 54.3365C93.0723 53.8308 93.2018 53.2573 93.2018 52.616C93.2018 51.987 93.0723 51.4258 92.8133 50.9325C92.5667 50.4392 92.2213 50.0507 91.7773 49.767C91.3333 49.4833 90.8215 49.3415 90.2418 49.3415C89.6745 49.3415 89.1688 49.4833 88.7248 49.767C88.2932 50.0507 87.9478 50.4392 87.6888 50.9325C87.4422 51.4258 87.3188 51.987 87.3188 52.616C87.3188 53.2573 87.4422 53.8308 87.6888 54.3365C87.9478 54.8298 88.2932 55.2183 88.7248 55.502C89.1688 55.7857 89.6745 55.9275 90.2418 55.9275ZM97.7124 57.5V47.7875H99.6364V50.84L99.4514 50.1C99.587 49.6313 99.8152 49.2058 100.136 48.8235C100.469 48.4412 100.845 48.139 101.264 47.917C101.696 47.695 102.14 47.584 102.596 47.584C102.806 47.584 103.003 47.6025 103.188 47.6395C103.386 47.6765 103.54 47.7197 103.651 47.769L103.151 49.841C103.003 49.7793 102.837 49.73 102.652 49.693C102.479 49.6437 102.307 49.619 102.134 49.619C101.801 49.619 101.48 49.6868 101.172 49.8225C100.876 49.9458 100.611 50.1247 100.376 50.359C100.154 50.581 99.9755 50.8462 99.8399 51.1545C99.7042 51.4505 99.6364 51.7773 99.6364 52.135V57.5H97.7124ZM105.137 57.5V47.7875H107.061V49.8595L106.709 50.0815C106.808 49.7608 106.962 49.4525 107.172 49.1565C107.394 48.8605 107.659 48.6015 107.967 48.3795C108.288 48.1452 108.627 47.9602 108.985 47.8245C109.355 47.6888 109.731 47.621 110.113 47.621C110.668 47.621 111.155 47.7135 111.575 47.8985C111.994 48.0835 112.339 48.361 112.611 48.731C112.882 49.101 113.079 49.5635 113.203 50.1185L112.907 50.0445L113.036 49.73C113.172 49.4463 113.357 49.1812 113.591 48.9345C113.838 48.6755 114.115 48.4473 114.424 48.25C114.732 48.0527 115.059 47.8985 115.404 47.7875C115.75 47.6765 116.089 47.621 116.422 47.621C117.149 47.621 117.748 47.769 118.216 48.065C118.697 48.361 119.055 48.8112 119.289 49.4155C119.536 50.0198 119.659 50.7722 119.659 51.6725V57.5H117.735V51.7835C117.735 51.2285 117.661 50.7783 117.513 50.433C117.378 50.0753 117.168 49.8102 116.884 49.6375C116.601 49.4648 116.237 49.3785 115.793 49.3785C115.447 49.3785 115.121 49.4402 114.812 49.5635C114.516 49.6745 114.257 49.8348 114.035 50.0445C113.813 50.2542 113.641 50.5008 113.517 50.7845C113.394 51.0558 113.332 51.358 113.332 51.691V57.5H111.408V51.7465C111.408 51.2408 111.334 50.8153 111.186 50.47C111.038 50.1123 110.822 49.841 110.539 49.656C110.255 49.471 109.91 49.3785 109.503 49.3785C109.157 49.3785 108.837 49.4402 108.541 49.5635C108.245 49.6745 107.986 49.8348 107.764 50.0445C107.542 50.2418 107.369 50.4823 107.246 50.766C107.122 51.0373 107.061 51.3333 107.061 51.654V57.5H105.137ZM125.947 57.685C125.146 57.685 124.412 57.463 123.746 57.019C123.092 56.575 122.568 55.9707 122.173 55.206C121.779 54.4413 121.581 53.578 121.581 52.616C121.581 51.6417 121.779 50.7783 122.173 50.026C122.58 49.2613 123.123 48.6632 123.801 48.2315C124.492 47.7998 125.263 47.584 126.114 47.584C126.62 47.584 127.082 47.658 127.501 47.806C127.921 47.954 128.285 48.1637 128.593 48.435C128.914 48.694 129.173 48.9962 129.37 49.3415C129.58 49.6868 129.709 50.0568 129.758 50.4515L129.333 50.3035V47.7875H131.257V57.5H129.333V55.1875L129.777 55.058C129.703 55.391 129.549 55.7178 129.314 56.0385C129.092 56.3468 128.803 56.6243 128.445 56.871C128.1 57.1177 127.711 57.315 127.279 57.463C126.86 57.611 126.416 57.685 125.947 57.685ZM126.447 55.9275C127.027 55.9275 127.538 55.7857 127.982 55.502C128.426 55.2183 128.772 54.8298 129.018 54.3365C129.277 53.8308 129.407 53.2573 129.407 52.616C129.407 51.987 129.277 51.4258 129.018 50.9325C128.772 50.4392 128.426 50.0507 127.982 49.767C127.538 49.4833 127.027 49.3415 126.447 49.3415C125.88 49.3415 125.374 49.4833 124.93 49.767C124.498 50.0507 124.153 50.4392 123.894 50.9325C123.647 51.4258 123.524 51.987 123.524 52.616C123.524 53.2573 123.647 53.8308 123.894 54.3365C124.153 54.8298 124.498 55.2183 124.93 55.502C125.374 55.7857 125.88 55.9275 126.447 55.9275ZM138.043 57.685C137.143 57.685 136.335 57.463 135.619 57.019C134.916 56.575 134.355 55.9707 133.936 55.206C133.529 54.4413 133.325 53.5842 133.325 52.6345C133.325 51.6848 133.529 50.8277 133.936 50.063C134.355 49.2983 134.916 48.694 135.619 48.25C136.335 47.806 137.143 47.584 138.043 47.584C138.906 47.584 139.689 47.7628 140.392 48.1205C141.108 48.4658 141.65 48.9407 142.02 49.545L140.966 50.84C140.769 50.5563 140.516 50.2973 140.207 50.063C139.899 49.8287 139.572 49.6437 139.227 49.508C138.882 49.3723 138.549 49.3045 138.228 49.3045C137.636 49.3045 137.106 49.4525 136.637 49.7485C136.181 50.0322 135.817 50.4268 135.545 50.9325C135.274 51.4382 135.138 52.0055 135.138 52.6345C135.138 53.2635 135.28 53.8308 135.564 54.3365C135.848 54.8298 136.224 55.2245 136.692 55.5205C137.161 55.8165 137.679 55.9645 138.246 55.9645C138.579 55.9645 138.9 55.909 139.208 55.798C139.529 55.687 139.837 55.5205 140.133 55.2985C140.429 55.0765 140.707 54.8052 140.966 54.4845L142.02 55.7795C141.626 56.3345 141.058 56.7908 140.318 57.1485C139.591 57.5062 138.832 57.685 138.043 57.685ZM145.175 61.755L147.136 57.2225L147.154 58.7395L142.307 47.7875H144.527L147.561 54.9285C147.623 55.0518 147.697 55.243 147.783 55.502C147.87 55.7487 147.944 55.9953 148.005 56.242L147.524 56.353C147.623 56.094 147.716 55.835 147.802 55.576C147.901 55.317 147.993 55.058 148.079 54.799L150.614 47.7875H152.871L148.875 57.5L147.228 61.755H145.175Z" fill="#1D3196"/>
<path d="M61.24 35.5L69.46 14.5H73.48L81.67 35.5H77.05L72.82 24.19C72.7 23.87 72.55 23.46 72.37 22.96C72.21 22.46 72.04 21.93 71.86 21.37C71.68 20.81 71.51 20.28 71.35 19.78C71.19 19.26 71.07 18.83 70.99 18.49L71.8 18.46C71.68 18.92 71.54 19.4 71.38 19.9C71.24 20.38 71.09 20.88 70.93 21.4C70.77 21.9 70.6 22.39 70.42 22.87C70.24 23.35 70.07 23.82 69.91 24.28L65.68 35.5H61.24ZM65.05 31.09L66.52 27.46H76.15L77.65 31.09H65.05ZM88.4357 35.8C87.2757 35.8 86.2757 35.55 85.4357 35.05C84.6157 34.53 83.9757 33.8 83.5157 32.86C83.0757 31.9 82.8557 30.75 82.8557 29.41V19.63H87.1157V28.72C87.1157 29.44 87.2357 30.07 87.4757 30.61C87.7157 31.13 88.0557 31.53 88.4957 31.81C88.9357 32.09 89.4757 32.23 90.1157 32.23C90.5757 32.23 91.0057 32.16 91.4057 32.02C91.8057 31.86 92.1457 31.64 92.4257 31.36C92.7057 31.08 92.9257 30.75 93.0857 30.37C93.2457 29.99 93.3257 29.58 93.3257 29.14V19.63H97.5857V35.5H93.5357L93.3857 32.23L94.1657 31.87C93.9257 32.61 93.5257 33.28 92.9657 33.88C92.4057 34.48 91.7357 34.95 90.9557 35.29C90.1757 35.63 89.3357 35.8 88.4357 35.8ZM106.462 35.8C104.982 35.8 103.662 35.56 102.502 35.08C101.362 34.58 100.442 33.9 99.7422 33.04L102.382 30.76C103.002 31.42 103.692 31.9 104.452 32.2C105.212 32.48 105.972 32.62 106.732 32.62C107.032 32.62 107.302 32.59 107.542 32.53C107.802 32.45 108.022 32.35 108.202 32.23C108.382 32.09 108.512 31.93 108.592 31.75C108.692 31.55 108.742 31.34 108.742 31.12C108.742 30.68 108.562 30.33 108.202 30.07C108.002 29.97 107.692 29.85 107.272 29.71C106.852 29.55 106.312 29.38 105.652 29.2C104.632 28.94 103.762 28.64 103.042 28.3C102.342 27.94 101.782 27.54 101.362 27.1C101.002 26.68 100.722 26.23 100.522 25.75C100.342 25.25 100.252 24.7 100.252 24.1C100.252 23.38 100.412 22.73 100.732 22.15C101.052 21.55 101.492 21.04 102.052 20.62C102.632 20.2 103.292 19.88 104.032 19.66C104.772 19.42 105.552 19.3 106.372 19.3C107.192 19.3 107.992 19.4 108.772 19.6C109.552 19.8 110.272 20.09 110.932 20.47C111.612 20.83 112.202 21.26 112.702 21.76L110.422 24.28C110.062 23.94 109.652 23.63 109.192 23.35C108.752 23.07 108.292 22.85 107.812 22.69C107.332 22.53 106.902 22.45 106.522 22.45C106.182 22.45 105.872 22.48 105.592 22.54C105.332 22.6 105.112 22.69 104.932 22.81C104.752 22.93 104.612 23.09 104.512 23.29C104.432 23.47 104.392 23.67 104.392 23.89C104.392 24.11 104.442 24.32 104.542 24.52C104.662 24.72 104.822 24.89 105.022 25.03C105.242 25.15 105.562 25.29 105.982 25.45C106.422 25.61 107.012 25.79 107.752 25.99C108.712 26.25 109.522 26.54 110.182 26.86C110.862 27.18 111.402 27.55 111.802 27.97C112.142 28.33 112.392 28.74 112.552 29.2C112.712 29.66 112.792 30.17 112.792 30.73C112.792 31.71 112.512 32.59 111.952 33.37C111.412 34.13 110.662 34.73 109.702 35.17C108.742 35.59 107.662 35.8 106.462 35.8ZM116.609 35.5V15.61H120.869V35.5H116.609ZM113.639 23.44V19.63H124.109V23.44H113.639ZM126.136 35.5V19.63H130.246L130.396 24.73L129.676 23.68C129.916 22.86 130.306 22.12 130.846 21.46C131.386 20.78 132.016 20.25 132.736 19.87C133.476 19.49 134.246 19.3 135.046 19.3C135.386 19.3 135.716 19.33 136.036 19.39C136.356 19.45 136.626 19.52 136.846 19.6L135.706 24.28C135.466 24.16 135.176 24.06 134.836 23.98C134.496 23.88 134.146 23.83 133.786 23.83C133.306 23.83 132.856 23.92 132.436 24.1C132.036 24.26 131.686 24.5 131.386 24.82C131.086 25.12 130.846 25.48 130.666 25.9C130.506 26.32 130.426 26.78 130.426 27.28V35.5H126.136ZM143.806 35.8C142.486 35.8 141.296 35.44 140.236 34.72C139.176 34 138.336 33.02 137.716 31.78C137.096 30.54 136.786 29.12 136.786 27.52C136.786 25.92 137.096 24.51 137.716 23.29C138.356 22.05 139.216 21.08 140.296 20.38C141.376 19.66 142.606 19.3 143.986 19.3C144.766 19.3 145.476 19.42 146.116 19.66C146.776 19.88 147.346 20.19 147.826 20.59C148.326 20.99 148.746 21.45 149.086 21.97C149.426 22.49 149.666 23.05 149.806 23.65L148.906 23.5V19.63H153.136V35.5H148.846V31.69L149.806 31.6C149.646 32.16 149.386 32.69 149.026 33.19C148.666 33.69 148.216 34.14 147.676 34.54C147.156 34.92 146.566 35.23 145.906 35.47C145.246 35.69 144.546 35.8 143.806 35.8ZM144.976 32.11C145.776 32.11 146.476 31.92 147.076 31.54C147.676 31.16 148.136 30.63 148.456 29.95C148.796 29.25 148.966 28.44 148.966 27.52C148.966 26.62 148.796 25.83 148.456 25.15C148.136 24.47 147.676 23.94 147.076 23.56C146.476 23.16 145.776 22.96 144.976 22.96C144.196 22.96 143.506 23.16 142.906 23.56C142.326 23.94 141.866 24.47 141.526 25.15C141.186 25.83 141.016 26.62 141.016 27.52C141.016 28.44 141.186 29.25 141.526 29.95C141.866 30.63 142.326 31.16 142.906 31.54C143.506 31.92 144.196 32.11 144.976 32.11ZM156.687 35.5V13.3H160.947V35.5H156.687ZM164.881 35.5V19.63H169.141V35.5H164.881ZM166.981 16.36C166.161 16.36 165.521 16.16 165.061 15.76C164.601 15.36 164.371 14.79 164.371 14.05C164.371 13.37 164.601 12.82 165.061 12.4C165.541 11.96 166.181 11.74 166.981 11.74C167.801 11.74 168.441 11.95 168.901 12.37C169.361 12.77 169.591 13.33 169.591 14.05C169.591 14.75 169.351 15.31 168.871 15.73C168.411 16.15 167.781 16.36 166.981 16.36ZM178.881 35.8C177.561 35.8 176.371 35.44 175.311 34.72C174.251 34 173.411 33.02 172.791 31.78C172.171 30.54 171.861 29.12 171.861 27.52C171.861 25.92 172.171 24.51 172.791 23.29C173.431 22.05 174.291 21.08 175.371 20.38C176.451 19.66 177.681 19.3 179.061 19.3C179.841 19.3 180.551 19.42 181.191 19.66C181.851 19.88 182.421 20.19 182.901 20.59C183.401 20.99 183.821 21.45 184.161 21.97C184.501 22.49 184.741 23.05 184.881 23.65L183.981 23.5V19.63H188.211V35.5H183.921V31.69L184.881 31.6C184.721 32.16 184.461 32.69 184.101 33.19C183.741 33.69 183.291 34.14 182.751 34.54C182.231 34.92 181.641 35.23 180.981 35.47C180.321 35.69 179.621 35.8 178.881 35.8ZM180.051 32.11C180.851 32.11 181.551 31.92 182.151 31.54C182.751 31.16 183.211 30.63 183.531 29.95C183.871 29.25 184.041 28.44 184.041 27.52C184.041 26.62 183.871 25.83 183.531 25.15C183.211 24.47 182.751 23.94 182.151 23.56C181.551 23.16 180.851 22.96 180.051 22.96C179.271 22.96 178.581 23.16 177.981 23.56C177.401 23.94 176.941 24.47 176.601 25.15C176.261 25.83 176.091 26.62 176.091 27.52C176.091 28.44 176.261 29.25 176.601 29.95C176.941 30.63 177.401 31.16 177.981 31.54C178.581 31.92 179.271 32.11 180.051 32.11ZM191.732 35.5V19.63H195.812L195.932 22.87L195.092 23.23C195.312 22.51 195.702 21.86 196.262 21.28C196.842 20.68 197.532 20.2 198.332 19.84C199.132 19.48 199.972 19.3 200.852 19.3C202.052 19.3 203.052 19.54 203.852 20.02C204.672 20.5 205.282 21.23 205.682 22.21C206.102 23.17 206.312 24.36 206.312 25.78V35.5H202.052V26.11C202.052 25.39 201.952 24.79 201.752 24.31C201.552 23.83 201.242 23.48 200.822 23.26C200.422 23.02 199.922 22.92 199.322 22.96C198.842 22.96 198.392 23.04 197.972 23.2C197.572 23.34 197.222 23.55 196.922 23.83C196.642 24.11 196.412 24.43 196.232 24.79C196.072 25.15 195.992 25.54 195.992 25.96V35.5H193.892C193.432 35.5 193.022 35.5 192.662 35.5C192.302 35.5 191.992 35.5 191.732 35.5Z" fill="#1D3196"/>
<defs>
<clipPath id="clip0_115_12">
<rect width="39" height="68" fill="white"/>
</clipPath>
</defs>
</svg>
